<svg width="238" height="238" viewBox="0 0 238 238" fill="none" xmlns="http://www.w3.org/2000/svg">
  <rect width="238" height="238" rx="50" fill="#F5D009" />
  <path
    d="M81.582 98.2029V134.982H73H72.5V135.482V139.405V139.905H73H81.582V159.703H73H72.5V160.203V164.126V164.626H73H81.582V181V181.5H82.082H86.0301H86.5301V181V164.626H107.747H108.247V164.126V160.203V159.703H107.747H86.5301L86.5314 139.907H123.541H124.529H125.516H125.529L125.543 139.906C147.714 138.714 165.5 120.451 165.5 98.2039V97.9349L165.498 97.9333C165.352 75.0184 146.623 56.5 123.54 56.5C100.366 56.5 81.582 75.1645 81.582 98.2029ZM160.55 98.2029C160.55 118.133 144.39 134.397 124.52 134.982H86.5304V98.2029C86.5304 77.8801 103.085 61.4241 123.54 61.4241C143.996 61.4241 160.55 77.8812 160.55 98.2029Z"
    fill="black" stroke="black" />
</svg>
  