<svg width="103" height="103" viewBox="0 0 103 103" fill="none" xmlns="http://www.w3.org/2000/svg">
  <rect width="103" height="103" rx="35" fill="#F5D009"/>
  <path fill-rule="evenodd" clip-rule="evenodd" d="M70.9707 41.7264L74.3316 38.3655C76.1082 36.589 76.1082 33.7086 74.3316 31.9321L70.9707 28.5712C70.2094 27.8098 68.9749 27.8098 68.2135 28.5712C67.4522 29.3325 67.4522 30.567 68.2135 31.3284L71.5744 34.6893C71.8282 34.9431 71.8282 35.3545 71.5744 35.6083L68.2135 38.9692C67.4522 39.7306 67.4522 40.9651 68.2135 41.7264C68.9749 42.4878 70.2094 42.4878 70.9707 41.7264ZM74.7912 71.5421V67.2634C74.7912 65.1375 73.4969 63.2258 71.523 62.4362L66.2352 60.3211C63.7247 59.3169 60.8635 60.4047 59.6542 62.8232L59.1941 63.7435C59.1941 63.7435 52.6953 62.4437 47.4962 57.2447C42.2972 52.0457 40.9974 45.5469 40.9974 45.5469L41.9177 45.0867C44.3362 43.8775 45.424 41.0163 44.4198 38.5057L42.3047 33.2179C41.5152 31.2441 39.6034 29.9498 37.4775 29.9498H33.1989C30.3275 29.9498 27.9998 32.2774 27.9998 35.1488C27.9998 58.1196 46.6214 76.7411 69.5921 76.7411C72.4635 76.7411 74.7912 74.4134 74.7912 71.5421ZM60.5727 41.7264C59.8113 42.4878 58.5768 42.4878 57.8155 41.7264C57.0541 40.9651 57.0541 39.7306 57.8155 38.9692L59.6863 37.0984H53.995C52.9183 37.0984 52.0454 36.2256 52.0454 35.1488C52.0454 34.072 52.9183 33.1992 53.995 33.1992H59.6863L57.8155 31.3284C57.0541 30.567 57.0541 29.3325 57.8155 28.5712C58.5768 27.8098 59.8113 27.8098 60.5727 28.5712L63.9336 31.9321C65.7101 33.7086 65.7101 36.589 63.9336 38.3655L60.5727 41.7264Z" fill="black"/>
  <path d="M70.9707 41.7264L71.3243 42.08L70.9707 41.7264ZM74.3316 31.9321L73.9781 32.2856L74.3316 31.9321ZM70.9707 28.5712L71.3243 28.2176V28.2176L70.9707 28.5712ZM68.2135 28.5712L68.5671 28.9247V28.9247L68.2135 28.5712ZM68.2135 31.3284L68.5671 30.9748V30.9748L68.2135 31.3284ZM71.5744 34.6893L71.2209 35.0428L71.5744 34.6893ZM71.5744 35.6083L71.928 35.9619L71.5744 35.6083ZM68.2135 38.9692L68.5671 39.3228L68.2135 38.9692ZM68.2135 41.7264L68.5671 41.3729V41.3729L68.2135 41.7264ZM71.523 62.4362L71.3373 62.9005L71.523 62.4362ZM66.2352 60.3211L66.4209 59.8569L66.2352 60.3211ZM59.6542 62.8232L60.1014 63.0468L59.6542 62.8232ZM59.1941 63.7435L59.096 64.2338C59.3171 64.278 59.5404 64.1688 59.6413 63.9671L59.1941 63.7435ZM47.4962 57.2447L47.8498 56.8911L47.4962 57.2447ZM40.9974 45.5469L40.7738 45.0997C40.5722 45.2005 40.4629 45.4238 40.5071 45.6449L40.9974 45.5469ZM41.9177 45.0867L42.1413 45.5339H42.1413L41.9177 45.0867ZM44.4198 38.5057L44.8841 38.32L44.4198 38.5057ZM42.3047 33.2179L42.7689 33.0322L42.3047 33.2179ZM57.8155 41.7264L58.169 41.3729V41.3729L57.8155 41.7264ZM60.5727 41.7264L60.2191 41.3729V41.3729L60.5727 41.7264ZM57.8155 38.9692L58.169 39.3228L57.8155 38.9692ZM59.6863 37.0984L60.0398 37.452C60.1828 37.309 60.2256 37.0939 60.1482 36.9071C60.0708 36.7203 59.8885 36.5984 59.6863 36.5984V37.0984ZM59.6863 33.1992V33.6992C59.8885 33.6992 60.0708 33.5773 60.1482 33.3905C60.2256 33.2037 60.1828 32.9886 60.0398 32.8456L59.6863 33.1992ZM57.8155 31.3284L57.4619 31.6819L57.8155 31.3284ZM57.8155 28.5712L57.4619 28.2176V28.2176L57.8155 28.5712ZM60.5727 28.5712L60.9262 28.2176V28.2176L60.5727 28.5712ZM63.9336 31.9321L64.2871 31.5785V31.5785L63.9336 31.9321ZM73.9781 38.012L70.6172 41.3729L71.3243 42.08L74.6852 38.7191L73.9781 38.012ZM73.9781 32.2856C75.5594 33.8669 75.5594 36.4307 73.9781 38.012L74.6852 38.7191C76.657 36.7473 76.657 33.5503 74.6852 31.5785L73.9781 32.2856ZM70.6172 28.9247L73.9781 32.2856L74.6852 31.5785L71.3243 28.2176L70.6172 28.9247ZM68.5671 28.9247C69.1332 28.3586 70.0511 28.3586 70.6172 28.9247L71.3243 28.2176C70.3677 27.261 68.8166 27.261 67.86 28.2176L68.5671 28.9247ZM68.5671 30.9748C68.001 30.4087 68.001 29.4908 68.5671 28.9247L67.86 28.2176C66.9033 29.1742 66.9033 30.7253 67.86 31.6819L68.5671 30.9748ZM71.928 34.3357L68.5671 30.9748L67.86 31.6819L71.2209 35.0428L71.928 34.3357ZM71.928 35.9619C72.377 35.5128 72.377 34.7848 71.928 34.3357L71.2209 35.0428C71.2794 35.1014 71.2794 35.1962 71.2209 35.2548L71.928 35.9619ZM68.5671 39.3228L71.928 35.9619L71.2209 35.2548L67.86 38.6157L68.5671 39.3228ZM68.5671 41.3729C68.001 40.8068 68.001 39.8889 68.5671 39.3228L67.86 38.6157C66.9033 39.5723 66.9033 41.1233 67.86 42.08L68.5671 41.3729ZM70.6172 41.3729C70.0511 41.939 69.1332 41.939 68.5671 41.3729L67.86 42.08C68.8166 43.0366 70.3677 43.0366 71.3243 42.08L70.6172 41.3729ZM74.2912 67.2634V71.5421H75.2912V67.2634H74.2912ZM71.3373 62.9005C73.1213 63.6141 74.2912 65.342 74.2912 67.2634H75.2912C75.2912 64.9331 73.8724 62.8375 71.7087 61.972L71.3373 62.9005ZM66.0495 60.7854L71.3373 62.9005L71.7087 61.972L66.4209 59.8569L66.0495 60.7854ZM60.1014 63.0468C61.1944 60.8609 63.7804 59.8777 66.0495 60.7854L66.4209 59.8569C63.6689 58.7561 60.5325 59.9485 59.207 62.5996L60.1014 63.0468ZM59.6413 63.9671L60.1014 63.0468L59.207 62.5996L58.7469 63.5199L59.6413 63.9671ZM47.1427 57.5983C49.7998 60.2554 52.7838 61.9116 55.0978 62.9033C56.256 63.3997 57.2498 63.7311 57.9563 63.9389C58.3097 64.0428 58.5915 64.1159 58.7865 64.1633C58.884 64.187 58.9598 64.2043 59.012 64.2159C59.0381 64.2216 59.0583 64.226 59.0724 64.2289C59.0795 64.2304 59.085 64.2315 59.0889 64.2323C59.0909 64.2327 59.0925 64.2331 59.0936 64.2333C59.0942 64.2334 59.0947 64.2335 59.0951 64.2336C59.0953 64.2337 59.0955 64.2337 59.0956 64.2337C59.0958 64.2338 59.096 64.2338 59.1941 63.7435C59.2921 63.2532 59.2922 63.2532 59.2923 63.2533C59.2923 63.2533 59.2924 63.2533 59.2924 63.2533C59.2924 63.2533 59.2923 63.2532 59.2921 63.2532C59.2917 63.2531 59.2909 63.253 59.2898 63.2527C59.2874 63.2522 59.2835 63.2514 59.2781 63.2503C59.2673 63.248 59.2504 63.2444 59.2276 63.2394C59.1821 63.2293 59.1132 63.2136 59.0228 63.1917C58.8421 63.1477 58.5756 63.0787 58.2385 62.9795C57.564 62.7811 56.6082 62.4626 55.4918 61.9842C53.2566 61.0262 50.3917 59.4331 47.8498 56.8911L47.1427 57.5983ZM40.9974 45.5469C40.5071 45.6449 40.5072 45.6451 40.5072 45.6453C40.5072 45.6454 40.5073 45.6456 40.5073 45.6458C40.5074 45.6462 40.5075 45.6467 40.5076 45.6473C40.5079 45.6485 40.5082 45.6501 40.5086 45.652C40.5094 45.656 40.5105 45.6615 40.512 45.6685C40.515 45.6826 40.5193 45.7028 40.5251 45.7289C40.5366 45.7811 40.5539 45.8569 40.5776 45.9544C40.625 46.1494 40.6981 46.4313 40.8021 46.7846C41.0099 47.4911 41.3413 48.485 41.8376 49.6431C42.8293 51.9571 44.4856 54.9411 47.1427 57.5983L47.8498 56.8911C45.3079 54.3492 43.7147 51.4843 42.7568 49.2492C42.2783 48.1328 41.9598 47.1769 41.7614 46.5025C41.6623 46.1653 41.5932 45.8988 41.5493 45.7181C41.5273 45.6277 41.5116 45.5588 41.5015 45.5133C41.4965 45.4906 41.4929 45.4737 41.4906 45.4628C41.4895 45.4574 41.4887 45.4535 41.4882 45.4512C41.488 45.45 41.4878 45.4492 41.4877 45.4488C41.4877 45.4486 41.4877 45.4485 41.4877 45.4485L41.4877 45.4486C41.4877 45.4487 41.4877 45.4488 40.9974 45.5469ZM41.6941 44.6395L40.7738 45.0997L41.221 45.9941L42.1413 45.5339L41.6941 44.6395ZM43.9556 38.6914C44.8632 40.9605 43.88 43.5466 41.6941 44.6395L42.1413 45.5339C44.7924 44.2084 45.9849 41.072 44.8841 38.32L43.9556 38.6914ZM41.8405 33.4036L43.9556 38.6914L44.8841 38.32L42.7689 33.0322L41.8405 33.4036ZM37.4775 30.4498C39.399 30.4498 41.1269 31.6196 41.8405 33.4036L42.7689 33.0322C41.9035 30.8685 39.8079 29.4498 37.4775 29.4498V30.4498ZM33.1989 30.4498H37.4775V29.4498H33.1989V30.4498ZM28.4998 35.1488C28.4998 32.5536 30.6037 30.4498 33.1989 30.4498V29.4498C30.0514 29.4498 27.4998 32.0013 27.4998 35.1488H28.4998ZM69.5921 76.2411C46.8975 76.2411 28.4998 57.8434 28.4998 35.1488H27.4998C27.4998 58.3957 46.3452 77.2411 69.5921 77.2411V76.2411ZM74.2912 71.5421C74.2912 74.1373 72.1874 76.2411 69.5921 76.2411V77.2411C72.7396 77.2411 75.2912 74.6895 75.2912 71.5421H74.2912ZM57.4619 42.08C58.4186 43.0366 59.9696 43.0366 60.9262 42.08L60.2191 41.3729C59.653 41.939 58.7351 41.939 58.169 41.3729L57.4619 42.08ZM57.4619 38.6157C56.5053 39.5723 56.5053 41.1233 57.4619 42.08L58.169 41.3729C57.6029 40.8068 57.6029 39.8889 58.169 39.3228L57.4619 38.6157ZM59.3327 36.7449L57.4619 38.6157L58.169 39.3228L60.0398 37.452L59.3327 36.7449ZM53.995 37.5984H59.6863V36.5984H53.995V37.5984ZM51.5454 35.1488C51.5454 36.5017 52.6421 37.5984 53.995 37.5984V36.5984C53.1944 36.5984 52.5454 35.9494 52.5454 35.1488H51.5454ZM53.995 32.6992C52.6421 32.6992 51.5454 33.7959 51.5454 35.1488H52.5454C52.5454 34.3482 53.1944 33.6992 53.995 33.6992V32.6992ZM59.6863 32.6992H53.995V33.6992H59.6863V32.6992ZM57.4619 31.6819L59.3327 33.5527L60.0398 32.8456L58.169 30.9748L57.4619 31.6819ZM57.4619 28.2176C56.5053 29.1742 56.5053 30.7253 57.4619 31.6819L58.169 30.9748C57.6029 30.4087 57.6029 29.4908 58.169 28.9247L57.4619 28.2176ZM60.9262 28.2176C59.9696 27.261 58.4186 27.261 57.4619 28.2176L58.169 28.9247C58.7351 28.3586 59.653 28.3586 60.2191 28.9247L60.9262 28.2176ZM64.2871 31.5785L60.9262 28.2176L60.2191 28.9247L63.58 32.2856L64.2871 31.5785ZM64.2871 38.7191C66.2589 36.7473 66.2589 33.5503 64.2871 31.5785L63.58 32.2856C65.1613 33.8669 65.1613 36.4307 63.58 38.012L64.2871 38.7191ZM60.9262 42.08L64.2871 38.7191L63.58 38.012L60.2191 41.3729L60.9262 42.08Z" fill="black"/>
  </svg>
  