<svg width="1080" height="702" viewBox="0 0 1080 702" fill="none" xmlns="http://www.w3.org/2000/svg">
  <path
    d="M1225.58 839C1125.95 839 1044.21 805.52 977.583 737.812C901.052 660.023 855.126 547.82 814.618 448.873C764.583 326.775 721.367 220.982 636.802 208.536C513.784 190.271 409.323 259.099 308.318 325.655C222.414 382.192 141.306 435.68 52.3815 435.68C18.6302 435.68 -8.98724 422.829 -29.7549 397.47C-65.6545 353.597 -81.2224 273.879 -76.0227 160.089C-73.4278 107.217 -67.2383 54.5832 -57.4969 2.55087C-57.3318 1.72563 -56.8453 0.999759 -56.1446 0.532935C-55.7977 0.301787 -55.4086 0.141194 -54.9995 0.0603259C-54.5905 -0.0205422 -54.1695 -0.0201021 -53.7606 0.061621C-53.3517 0.143344 -52.963 0.30475 -52.6165 0.536623C-52.27 0.768495 -51.9727 1.06629 -51.7414 1.41302C-51.5101 1.75974 -51.3494 2.14859 -51.2684 2.55738C-51.1875 2.96616 -51.188 3.38688 -51.2697 3.79549C-51.8613 6.65812 -108.248 291.584 -24.8043 393.487C-5.37549 417.322 20.5918 429.457 52.3815 429.457C139.562 429.457 219.799 376.56 304.893 320.552C406.863 253.218 512.352 183.644 637.704 202.313C725.788 215.413 769.627 322.481 820.379 446.477C860.668 544.927 906.345 656.476 982.036 733.425C1068.81 821.513 1181.55 850.606 1327.24 822.353C1328.06 822.196 1328.92 822.374 1329.61 822.846C1330.31 823.319 1330.79 824.048 1330.94 824.873C1331.1 825.699 1330.92 826.552 1330.45 827.247C1329.98 827.941 1329.25 828.419 1328.42 828.576C1294.56 835.338 1260.12 838.828 1225.58 839Z"
    fill="white" />
</svg>
  